<svg width="864" height="864" viewBox="0 0 864 864" fill="none" xmlns="http://www.w3.org/2000/svg">
<path d="M572.984 290.312L523.968 354.12H432.104L479.08 290.312H572.984Z" fill="#DBD6C8"/>
<path d="M434.144 471.056L387.184 532.192H92.4722L143.528 470.232C143.528 470.232 297.568 470.864 434.152 471.056H434.144Z" fill="#DBD6C8"/>
<path d="M771.52 421.16C769.04 469.24 740.792 496.992 713.152 512.728C690.4 525.688 664.544 532.184 638.36 532.184H415.64L460.816 471.08C553.952 471.176 633.12 471.008 640.176 470.224C658.016 468.24 695.688 451.392 693.704 408.76C692.792 389.224 680.64 376.104 667.744 367.64C654.016 358.632 637.824 354.112 621.408 354.112H547.288L594.464 290.304H631.44C655.744 290.304 679.872 295.264 701.944 305.464C738.992 322.616 774.888 355.904 771.528 421.16" fill="#DBD6C8"/>
<path d="M444.88 437.512H198.328C182.912 437.512 167.616 434.136 153.848 427.2C135.776 418.112 116.792 401.376 115.768 371.088C113.784 312.6 157.984 291.784 192.88 290.296C227.776 288.808 487.744 290.296 487.744 290.296L436.544 354.24H205.976C205.976 354.24 191.104 357.216 192.096 371.096C193.088 384.976 205.976 384.976 205.976 384.976L372.272 387.76C386.128 387.992 399.84 391.048 412.296 397.12C427.04 404.304 442.408 416.696 444.888 437.52L444.88 437.512Z" fill="#DBD6C8"/>
</svg>
